<svg viewBox="0 0 24 24" fill="none" xmlns="http://www.w3.org/2000/svg">
<g transform="translate(2.5625 3.0696)">
<g id="Union">
<path d="M17.5625 0.5625C17.9767 0.5625 18.3125 0.898286 18.3125 1.3125V13.3125C18.3125 13.7267 17.9767 14.0625 17.5625 14.0625H11.3857L9.65625 17.1699C9.56094 17.3411 9.31406 17.3411 9.21875 17.1699L7.48926 14.0625H1.3125C0.898286 14.0625 0.5625 13.7267 0.5625 13.3125V1.3125C0.5625 0.898287 0.898287 0.5625 1.3125 0.5625H17.5625Z" fill="var(--fill-0, #371659)" fill-opacity="0.8"/>
<path d="M18.3125 1.3125H18.875H18.3125ZM18.3125 13.3125H18.875V13.3125H18.3125ZM11.3857 14.0625V13.5H11.0551L10.8942 13.7889L11.3857 14.0625ZM9.65625 17.1699L10.1477 17.4435L10.1478 17.4435L9.65625 17.1699ZM9.21875 17.1699L8.72725 17.4435L8.72728 17.4435L9.21875 17.1699ZM7.48926 14.0625L7.98076 13.7889L7.81994 13.5H7.48926V14.0625ZM0.5625 13.3125H0H0.5625ZM0.5625 1.3125L0 1.3125V1.3125H0.5625ZM17.5625 0.5625V1.125C17.6661 1.125 17.75 1.20895 17.75 1.3125H18.3125H18.875C18.875 0.587626 18.2874 0 17.5625 0V0.5625ZM18.3125 1.3125H17.75V13.3125H18.3125H18.875V1.3125H18.3125ZM18.3125 13.3125H17.75C17.75 13.4161 17.6661 13.5 17.5625 13.5V14.0625V14.625C18.2874 14.625 18.875 14.0374 18.875 13.3125H18.3125ZM17.5625 14.0625V13.5H11.3857V14.0625V14.625H17.5625V14.0625ZM11.3857 14.0625L10.8942 13.7889L9.16475 16.8964L9.65625 17.1699L10.1478 17.4435L11.8772 14.3361L11.3857 14.0625ZM9.65625 17.1699L9.16478 16.8963C9.28392 16.6823 9.59108 16.6823 9.71022 16.8963L9.21875 17.1699L8.72728 17.4435C9.03703 17.9999 9.83797 17.9999 10.1477 17.4435L9.65625 17.1699ZM9.21875 17.1699L9.71025 16.8964L7.98076 13.7889L7.48926 14.0625L6.99776 14.3361L8.72725 17.4435L9.21875 17.1699ZM7.48926 14.0625V13.5H1.3125V14.0625V14.625H7.48926V14.0625ZM1.3125 14.0625V13.5C1.20895 13.5 1.125 13.4161 1.125 13.3125H0.5625H0C0 14.0374 0.587626 14.625 1.3125 14.625V14.0625ZM0.5625 13.3125H1.125V1.3125H0.5625H0V13.3125H0.5625ZM0.5625 1.3125L1.125 1.3125C1.125 1.20895 1.20895 1.125 1.3125 1.125V0.5625V0C0.587626 0 3.57628e-07 0.587627 0 1.3125L0.5625 1.3125ZM1.3125 0.5625V1.125H17.5625V0.5625V0H1.3125V0.5625Z" fill="var(--stroke-0, #5C407A)"/>
</g>
<rect x="2.75" y="2.75" width="13.375" height="9.125" stroke="var(--stroke-0, #F0E8FF)" stroke-width="1.125"/>
</g>
</svg>
