<svg viewBox="0 0 219 20" fill="none" xmlns="http://www.w3.org/2000/svg">
<g id="Group">
<path id="Vector" d="M214.589 16.5116C212.141 16.5116 211.033 15.4834 211.033 13.5189V8.48818H207.224V6.4135H211.033V4.21026H214.2V6.4135H219V8.48818H214.2V13.1333C214.2 14.0146 214.764 14.4002 215.969 14.4002H219V16.5116H214.589Z" fill="var(--fill-0, #0A0A0A)"/>
<path id="Vector_2" d="M200.203 16.8421C196.045 16.8421 192.955 14.6573 192.955 11.481C192.955 8.28632 196.084 6.08308 200.203 6.08308C203.973 6.08308 206.849 7.90074 207.354 10.5997H204.226C203.817 9.09416 202.263 8.17613 200.203 8.17613C197.91 8.17613 196.181 9.47971 196.181 11.4443C196.181 13.4639 197.891 14.7491 200.203 14.7491C202.302 14.7491 203.876 13.7576 204.245 12.2337H207.354C206.907 14.9878 204.07 16.8421 200.203 16.8421Z" fill="var(--fill-0, #0A0A0A)"/>
<path id="Vector_3" d="M188.712 5.51395V3.4209H191.918V5.51395H188.712ZM188.712 16.5117V6.41361H191.918V16.5117H188.712Z" fill="var(--fill-0, #0A0A0A)"/>
<path id="Vector_4" d="M179.583 16.5118V6.41368H182.828V8.5251C183.819 7.03791 185.316 6.19336 187.414 6.19336C187.55 6.19336 187.609 6.19336 187.745 6.2117V8.72704C187.395 8.69033 187.045 8.67196 186.695 8.67196C185.044 8.67196 183.528 9.27786 182.828 10.4345V16.5118H179.583Z" fill="var(--fill-0, #0A0A0A)"/>
<path id="Vector_5" d="M174.244 16.5116C171.795 16.5116 170.688 15.4834 170.688 13.5189V8.48821H166.879V6.41352H170.688V4.21029H173.855V6.41352H178.655V8.48821H173.855V13.1333C173.855 14.0146 174.419 14.4002 175.623 14.4002H178.655V16.5116H174.244Z" fill="var(--fill-0, #0A0A0A)"/>
<path id="Vector_6" d="M160.517 16.8054C156.786 16.8054 154.143 15.4468 153.443 12.9682H156.572C157.038 14.1983 158.437 14.896 160.478 14.896C162.693 14.896 163.684 14.3636 163.684 13.6659C163.684 12.7111 161.935 12.5826 159.914 12.4357C157.038 12.2154 153.579 11.9951 153.579 9.47974C153.579 7.46013 155.853 6.11984 159.584 6.11984C163.295 6.11984 165.977 7.44176 166.735 9.82858H163.665C163.082 8.63518 161.741 8.066 159.603 8.066C157.66 8.066 156.727 8.54337 156.727 9.18597C156.727 10.0856 158.379 10.2325 160.361 10.361C163.257 10.563 166.832 10.7649 166.832 13.3721C166.832 15.3733 164.422 16.8054 160.517 16.8054Z" fill="var(--fill-0, #0A0A0A)"/>
<path id="Vector_7" d="M149.257 5.51395V3.4209H152.463V5.51395H149.257ZM149.257 16.5117V6.41361H152.463V16.5117H149.257Z" fill="var(--fill-0, #0A0A0A)"/>
<path id="Vector_8" d="M131.231 16.5116V3.65951H139.179C144.445 3.65951 148.04 6.11977 148.04 10.0856C148.04 14.0146 144.406 16.5116 139.179 16.5116H131.231ZM139.062 5.97287H134.612V14.235H139.062C142.463 14.235 144.542 12.7294 144.542 10.1223C144.542 7.4784 142.463 5.97287 139.062 5.97287Z" fill="var(--fill-0, #0A0A0A)"/>
<path id="Vector_9" d="M118.068 16.8421C113.988 16.8421 110.898 14.6389 110.898 11.481C110.898 8.32303 114.085 6.08308 118.107 6.08308C122.032 6.08308 125.258 8.23121 125.258 11.7013V11.8849H114.104C114.318 13.6475 115.892 14.7858 118.107 14.7858C119.895 14.7858 121.255 14.0698 121.877 12.858H125.083C124.248 15.2081 121.605 16.8421 118.068 16.8421ZM118.068 8.10271C116.203 8.10271 114.784 8.984 114.279 10.3426H121.916C121.391 8.96563 119.953 8.10271 118.068 8.10271Z" fill="var(--fill-0, #0A0A0A)"/>
<path id="Vector_10" d="M102.946 16.8421C98.7875 16.8421 95.6977 14.6572 95.6977 11.4809C95.6977 8.28625 98.8263 6.08301 102.946 6.08301C106.716 6.08301 109.592 7.90067 110.097 10.5996H106.968C106.56 9.09409 105.006 8.17606 102.946 8.17606C100.653 8.17606 98.9236 9.47964 98.9236 11.4442C98.9236 13.4638 100.634 14.749 102.946 14.749C105.045 14.749 106.619 13.7576 106.988 12.2337H110.097C109.65 14.9877 106.813 16.8421 102.946 16.8421Z" fill="var(--fill-0, #0A0A0A)"/>
<path id="Vector_11" d="M81.3765 16.5119V6.41381H84.6216V8.04787C85.729 6.85447 87.342 6.17513 89.2657 6.17513C92.5302 6.17513 94.7455 7.99279 94.7455 10.8937V16.5119H91.5199V11.3711C91.5199 9.36981 90.1402 8.34163 88.1385 8.34163C86.6425 8.34163 85.3599 8.94753 84.6216 9.88389V16.5119H81.3765Z" fill="var(--fill-0, #0A0A0A)"/>
<path id="Vector_12" d="M71.7483 16.7505C68.7172 16.7505 66.8322 15.5755 66.8322 13.8312C66.8322 11.1323 70.6993 10.9303 73.7304 10.5631C75.5959 10.3428 76.859 10.1041 76.859 9.35137C76.859 8.65369 75.8679 8.08453 73.9832 8.08453C71.9428 8.08453 70.6214 8.89237 70.194 10.0491H67.143C67.7844 7.80911 70.4272 6.13835 74.0998 6.13835C77.8891 6.13835 80.0849 7.55208 80.0849 10.2877V16.5118H76.898V15.0247C75.6542 16.1813 73.8666 16.7505 71.7483 16.7505ZM69.9995 13.7578C69.9995 14.5106 70.8935 14.9696 72.4481 14.9696C74.0803 14.9696 75.8874 14.4371 76.898 13.4457V11.5362V11.4995C76.1595 11.9402 74.8964 12.087 73.6529 12.2339C71.7291 12.4726 69.9995 12.6378 69.9995 13.7578Z" fill="var(--fill-0, #0A0A0A)"/>
<path id="Vector_13" d="M52.55 16.5119V6.41381H55.7952V8.04787C56.9026 6.85447 58.5155 6.17513 60.4393 6.17513C63.7037 6.17513 65.9191 7.99279 65.9191 10.8937V16.5119H62.6934V11.3711C62.6934 9.36981 61.3137 8.34163 59.3121 8.34163C57.8161 8.34163 56.5335 8.94753 55.7952 9.88389V16.5119H52.55Z" fill="var(--fill-0, #0A0A0A)"/>
<path id="Vector_14" d="M48.0327 5.51395V3.4209H51.2391V5.51395H48.0327ZM48.0327 16.5117V6.41361H51.2391V16.5117H48.0327Z" fill="var(--fill-0, #0A0A0A)"/>
<path id="Vector_15" d="M32.4542 16.5115V3.65942H47.0087V5.97279H35.8353V8.92876H44.0356V11.1871H35.8353V16.5115H32.4542Z" fill="var(--fill-0, #0A0A0A)"/>
<path id="Vector_16" d="M23.747 0V3.21637V3.39182H5.34656C5.04104 3.39182 4.02728 3.27484 4.02728 4.38597V20H0V6.84211L4.02728 3.39182L8.09833 0H23.747Z" fill="var(--fill-0, #0A0A0A)"/>
<path id="Vector_17" d="M7.91566 19.9999V16.2572H18.7375C18.8149 16.2572 19.8586 16.2572 19.8586 14.9706V7.13437H23.747V12.8654L19.6674 16.3157L15.2833 19.9999H7.91566Z" fill="var(--fill-0, #0A0A0A)"/>
</g>
</svg>
